<svg width="30" height="30" viewBox="0 0 30 30" fill="none" xmlns="http://www.w3.org/2000/svg">
<g clip-path="url(#clip0_12_45)">
<path d="M30 15C30 17.0312 29.6029 18.9714 28.8086 20.8203C28.0143 22.6693 26.9466 24.2643 25.6055 25.6055C24.2643 26.9466 22.6693 28.0143 20.8203 28.8086C18.9714 29.6029 17.0312 30 15 30C12.7604 30 10.6315 29.528 8.61328 28.584C6.59505 27.64 4.8763 26.3086 3.45703 24.5898C3.36589 24.4596 3.32357 24.3132 3.33008 24.1504C3.33659 23.9876 3.39193 23.8542 3.49609 23.75L6.17188 21.0547C6.30208 20.9375 6.46484 20.8789 6.66016 20.8789C6.86849 20.9049 7.01823 20.9831 7.10938 21.1133C8.0599 22.3503 9.22526 23.3073 10.6055 23.9844C11.9857 24.6615 13.4505 25 15 25C16.3542 25 17.6465 24.7363 18.877 24.209C20.1074 23.6816 21.1719 22.9688 22.0703 22.0703C22.9688 21.1719 23.6816 20.1074 24.209 18.877C24.7363 17.6465 25 16.3542 25 15C25 13.6458 24.7363 12.3535 24.209 11.123C23.6816 9.89258 22.9688 8.82812 22.0703 7.92969C21.1719 7.03125 20.1074 6.31836 18.877 5.79102C17.6465 5.26367 16.3542 5 15 5C13.724 5 12.5 5.23112 11.3281 5.69336C10.1562 6.1556 9.11458 6.81641 8.20312 7.67578L10.8789 10.3711C11.2826 10.7617 11.3737 11.2109 11.1523 11.7188C10.931 12.2396 10.5469 12.5 10 12.5H1.25C0.911458 12.5 0.61849 12.3763 0.371094 12.1289C0.123698 11.8815 0 11.5885 0 11.25V2.5C0 1.95312 0.260417 1.56901 0.78125 1.34766C1.28906 1.1263 1.73828 1.21745 2.12891 1.62109L4.66797 4.14062C6.0612 2.82552 7.65299 1.80664 9.44336 1.08398C11.2337 0.361328 13.0859 0 15 0C17.0312 0 18.9714 0.397135 20.8203 1.19141C22.6693 1.98568 24.2643 3.05339 25.6055 4.39453C26.9466 5.73568 28.0143 7.33073 28.8086 9.17969C29.6029 11.0286 30 12.9688 30 15ZM17.5 9.375V18.125C17.5 18.3073 17.4414 18.457 17.3242 18.5742C17.207 18.6914 17.0573 18.75 16.875 18.75H10.625C10.4427 18.75 10.293 18.6914 10.1758 18.5742C10.0586 18.457 10 18.3073 10 18.125V16.875C10 16.6927 10.0586 16.543 10.1758 16.4258C10.293 16.3086 10.4427 16.25 10.625 16.25H15V9.375C15 9.19271 15.0586 9.04297 15.1758 8.92578C15.293 8.80859 15.4427 8.75 15.625 8.75H16.875C17.0573 8.75 17.207 8.80859 17.3242 8.92578C17.4414 9.04297 17.5 9.19271 17.5 9.375Z" fill="#193A6F"/>
</g>
<defs>
<clipPath id="clip0_12_45">
<rect width="30" height="30" fill="white"/>
</clipPath>
</defs>
</svg>
