<svg width="30" height="30" viewBox="0 0 30 30" fill="none" xmlns="http://www.w3.org/2000/svg">
<path d="M5 5.625C5 4.7962 5.32924 4.00134 5.91529 3.41529C6.50134 2.82924 7.2962 2.5 8.125 2.5H22.5C22.9104 2.5 23.3167 2.58083 23.6959 2.73788C24.075 2.89492 24.4195 3.12511 24.7097 3.41529C24.9999 3.70547 25.2301 4.04997 25.3871 4.42911C25.5442 4.80826 25.625 5.21462 25.625 5.625V23.4375C25.625 23.6861 25.5262 23.9246 25.3504 24.1004C25.1746 24.2762 24.9361 24.375 24.6875 24.375H6.875C6.875 24.7065 7.0067 25.0245 7.24112 25.2589C7.47554 25.4933 7.79348 25.625 8.125 25.625H24.6875C24.9361 25.625 25.1746 25.7238 25.3504 25.8996C25.5262 26.0754 25.625 26.3139 25.625 26.5625C25.625 26.8111 25.5262 27.0496 25.3504 27.2254C25.1746 27.4012 24.9361 27.5 24.6875 27.5H8.125C7.2962 27.5 6.50134 27.1708 5.91529 26.5847C5.32924 25.9987 5 25.2038 5 24.375V5.625ZM15.3125 10C15.644 10 15.962 9.8683 16.1964 9.63388C16.4308 9.39946 16.5625 9.08152 16.5625 8.75C16.5625 8.41848 16.4308 8.10054 16.1964 7.86612C15.962 7.6317 15.644 7.5 15.3125 7.5C14.981 7.5 14.663 7.6317 14.4286 7.86612C14.1942 8.10054 14.0625 8.41848 14.0625 8.75C14.0625 9.08152 14.1942 9.39946 14.4286 9.63388C14.663 9.8683 14.981 10 15.3125 10ZM14.375 12.1875V18.4375C14.375 18.6861 14.4738 18.9246 14.6496 19.1004C14.8254 19.2762 15.0639 19.375 15.3125 19.375C15.5611 19.375 15.7996 19.2762 15.9754 19.1004C16.1512 18.9246 16.25 18.6861 16.25 18.4375V12.1875C16.25 11.9389 16.1512 11.7004 15.9754 11.5246C15.7996 11.3488 15.5611 11.25 15.3125 11.25C15.0639 11.25 14.8254 11.3488 14.6496 11.5246C14.4738 11.7004 14.375 11.9389 14.375 12.1875Z" fill="#193A6F"/>
</svg>
