<svg width="30" height="30" viewBox="0 0 30 30" fill="none" xmlns="http://www.w3.org/2000/svg">
<path d="M27.2092 2.88281C27.0915 2.75383 26.9489 2.65002 26.79 2.57763C26.6312 2.50524 26.4593 2.46578 26.2847 2.46162C26.1102 2.45746 25.9366 2.48868 25.7744 2.55342C25.6123 2.61816 25.4649 2.71506 25.3412 2.83828L24.2684 3.90762L26.0953 5.72988L27.15 4.68047C27.39 4.44642 27.5302 4.12861 27.5413 3.79355C27.5523 3.45848 27.4333 3.13214 27.2092 2.88281ZM14.8102 19.6875H10.3125V15.1898L10.8633 14.6402L18.9574 6.5625H2.8125V27.1875H23.4375V11.0426L15.3598 19.1367L14.8102 19.6875ZM23.4375 8.38828L25.3588 6.46289L23.5371 4.64121L21.6123 6.5625H23.4375V8.38828Z" fill="#193A6F"/>
<path d="M12.1875 17.8125H14.0326L23.4375 8.38828V6.5625H21.6123L12.1875 15.9674V17.8125Z" fill="#193A6F"/>
</svg>
