<svg width="30" height="30" viewBox="0 0 30 30" fill="none" xmlns="http://www.w3.org/2000/svg">
<path d="M18.525 1.25H11.475L10.6662 5.29625C9.99662 5.59632 9.35989 5.96496 8.76624 6.39625L4.85374 5.0725L1.32999 11.1775L4.43124 13.9025C4.35634 14.6322 4.35634 15.3678 4.43124 16.0975L1.32999 18.8225L4.85499 24.9275L8.76624 23.605C9.35624 24.0325 9.99124 24.4025 10.6662 24.7038L11.475 28.75H18.525L19.3337 24.7038C20.0034 24.4037 20.6401 24.035 21.2337 23.6037L25.1462 24.9275L28.6712 18.8225L25.5687 16.0975C25.6436 15.3678 25.6436 14.6322 25.5687 13.9025L28.67 11.1775L25.145 5.0725L21.235 6.395C20.6413 5.96414 20.0046 5.59593 19.335 5.29625L18.525 1.25ZM15 20C13.6739 20 12.4021 19.4732 11.4645 18.5355C10.5268 17.5979 9.99999 16.3261 9.99999 15C9.99999 13.6739 10.5268 12.4021 11.4645 11.4645C12.4021 10.5268 13.6739 10 15 10C16.3261 10 17.5978 10.5268 18.5355 11.4645C19.4732 12.4021 20 13.6739 20 15C20 16.3261 19.4732 17.5979 18.5355 18.5355C17.5978 19.4732 16.3261 20 15 20Z" fill="#193A6F"/>
</svg>
